<svg data-v-423bf9ae="" xmlns="http://www.w3.org/2000/svg" viewBox="0 0 54.677036903916225 60" class="icon"><!----><!----><!----><!----><g data-v-423bf9ae="" id="03fed001-e5be-4abf-842d-a4712c38f457" transform="matrix(0.6666610153112174,0,0,0.6666610153112174,-3.0377643794416223,-3.3334068009541795)" stroke="none" fill="black"><path d="M38.982 51.28c-2.616-2.341-6.307-3.633-8.286-3.46-.002 0-.005 0-.008.002-1.547-1.479-2.15-1.726-4.684-2.22-.402-1.947-1.79-4.434-3.639-5.584-1.029-.638-2.107-.795-3.114-.446a.652.652 0 0 0-.438.55c-.196 1.832-.458 3.203-.67 4.306-.198 1.033-.336 1.841-.345 2.586-1.402-1.167-2.489-1.915-2.761-2.397 1.565-1.569 2.694-3.979 3.622-7.723 4.256-1.397 6.531-4.903 5.552-8.635a.66.66 0 0 0-.491-.475c-.414-.095-2.566-.2-10.61 4.324a.727.727 0 0 0-.18.152c-.541.646-1.215 1.372-1.941 2.156-2.51 2.71-5.633 6.082-6.415 9.349a.67.67 0 0 0 .018.366c.037.103 3.5 10.163 3.719 12.663.126 1.441 2.787 3.054 7.481 5.781 3.914 2.272 9.273 5.385 9.432 7.204.265 3.037-.158 11.727-7.393 20.442-.068.043 8.456 5.067 12.851 4.767 2.368-.162 4.243-1.323 5.627-3.346a.67.67 0 0 0 .104-.256c.871-4.955 1.619-9.894 2.282-14.251 1.234-8.134 2.301-15.158 3.514-17.916a.637.637 0 0 0 .052-.199c.283-2.888-.849-5.563-3.279-7.74zm1.984 7.511c-1.263 2.969-2.281 9.677-3.567 18.147-.654 4.31-1.345 9.313-2.202 14.205-4.687 6.546-15.51-1.328-15.51-1.328 6.721-8.682 7.111-17.073 6.841-20.153-.203-2.317-4.122-4.76-10.078-8.221-2.692-1.563-6.762-3.926-6.834-4.761-.219-2.493-3.228-11.348-3.721-12.792.777-2.885 3.698-6.038 6.055-8.583a69.22 69.22 0 0 0 1.906-2.111c5.776-3.242 8.313-3.938 9.199-4.085.492 2.956-1.508 5.582-5.127 6.643a.658.658 0 0 0-.454.476c-.91 3.811-2.038 6.238-3.548 7.642a.85.85 0 0 0-.268.681c.016.311 4.313 4.256 4.796 6.762 3.091-1.403 7.187 3.971 7.69 4.328a.654.654 0 0 0 .912-.159.654.654 0 0 0-.157-.913c-2.981-2.102-7.332-5.523-7.67-6.539-.281-.842-.099-1.789.2-3.355.199-1.035.439-2.299.635-3.957.511-.073 1.057.07 1.61.413 1.598.994 2.9 3.445 3.111 5.112a.654.654 0 0 0 .526.56c2.839.542 3.092.621 4.697 2.179a.632.632 0 0 0 .591.172c1.318-.279 4.924.788 7.508 3.103 1.454 1.3 3.12 3.485 2.859 6.534zM86.556 43.765c-.781-3.268-3.905-6.639-6.415-9.349-.726-.784-1.4-1.51-1.941-2.156a.727.727 0 0 0-.18-.152c-8.044-4.524-10.197-4.419-10.61-4.324a.657.657 0 0 0-.491.475c-.979 3.732 1.295 7.238 5.553 8.635.927 3.744 2.055 6.154 3.621 7.723-.271.482-1.358 1.23-2.761 2.397-.009-.745-.148-1.553-.345-2.586-.212-1.103-.474-2.474-.671-4.306a.649.649 0 0 0-.437-.55c-1.006-.35-2.085-.192-3.114.447-1.85 1.149-3.237 3.636-3.639 5.583-2.534.495-3.138.742-4.684 2.22-.003-.002-.006-.002-.008-.002-1.979-.173-5.67 1.119-8.287 3.46-2.428 2.177-3.561 4.852-3.277 7.739a.637.637 0 0 0 .052.199c1.213 2.758 2.279 9.782 3.514 17.916.661 4.357 1.411 9.296 2.282 14.251a.67.67 0 0 0 .104.256c1.384 2.022 3.259 3.184 5.627 3.346 4.395.301 12.918-4.724 12.851-4.767-7.236-8.716-7.659-17.405-7.393-20.442.159-1.818 5.518-4.932 9.432-7.204 4.694-2.727 7.354-4.337 7.481-5.781.219-2.5 3.682-12.561 3.717-12.663a.666.666 0 0 0 .019-.365zm-5.042 12.914c-.072.835-4.142 3.198-6.834 4.761-5.957 3.461-9.875 5.904-10.079 8.221-.269 3.08.121 11.472 6.842 20.153 0 0-10.824 7.874-15.51 1.328-.857-4.893-1.548-9.896-2.202-14.205-1.287-8.47-2.304-15.178-3.567-18.147-.26-3.049 1.405-5.234 2.859-6.535 2.584-2.315 6.19-3.382 7.507-3.103a.633.633 0 0 0 .591-.172c1.606-1.558 1.859-1.637 4.698-2.179a.654.654 0 0 0 .526-.56c.211-1.667 1.513-4.119 3.11-5.112.554-.343 1.1-.485 1.61-.413.196 1.658.437 2.922.635 3.957.299 1.566.481 2.513.201 3.355-.338 1.016-4.689 4.437-7.671 6.539a.655.655 0 0 0 .756 1.072c.503-.357 4.599-5.73 7.69-4.328.484-2.506 4.781-6.451 4.796-6.762a.85.85 0 0 0-.268-.681c-1.51-1.404-2.638-3.831-3.548-7.642a.658.658 0 0 0-.454-.476c-3.62-1.061-5.619-3.687-5.127-6.643.886.147 3.422.844 9.199 4.085a67.92 67.92 0 0 0 1.906 2.111c2.356 2.545 5.278 5.699 6.055 8.583-.494 1.445-3.503 10.301-3.721 12.793zM50.38 38.197c.264.276.415.577.415.893 0 1.333-2.593 2.414-5.791 2.414-3.199 0-5.791-1.081-5.791-2.414 0-.316.149-.617.414-.893.852.893 2.937 1.521 5.377 1.521 2.441 0 4.526-.628 5.376-1.521zm-5.376 7.004c-1.62 0-3.084-.28-4.134-.727a.851.851 0 0 0-.049.28c0 1.049 1.873 1.896 4.183 1.896s4.182-.847 4.182-1.896a.934.934 0 0 0-.047-.28c-1.052.446-2.515.727-4.135.727zm0-2.564c-2.44 0-4.525-.631-5.377-1.522-.264.277-.414.578-.414.893 0 1.335 2.592 2.416 5.791 2.416 3.198 0 5.791-1.081 5.791-2.416 0-.315-.15-.616-.415-.893-.85.891-2.935 1.522-5.376 1.522zm10.504-22.66c0 2.043-.597 3.947-1.611 5.563-.055.09-.104.183-.164.271-.231.343-.485.67-.754.986-1.013 1.508-2.118 3.964-2.528 7.241v1.473c.217.252.344.523.344.807 0 1.026-1.537 1.9-3.7 2.25-.491.078-1.011.133-1.555.153-.178.007-.355.013-.536.013-.197 0-.391-.006-.583-.015a12.128 12.128 0 0 1-1.556-.159c-2.138-.354-3.651-1.223-3.651-2.242 0-.284.127-.557.345-.809v-1.677c-.422-3.11-1.468-5.458-2.441-6.941a11.063 11.063 0 0 1-.883-1.15c-.04-.06-.076-.125-.114-.185a10.39 10.39 0 0 1-1.62-5.578c0-5.791 4.713-10.504 10.504-10.504 5.791-.001 10.503 4.712 10.503 10.503zm-9.968 3.429a.558.558 0 0 0-.561-.558.558.558 0 0 0-.559.558V36.925c.194.008.385.023.583.023.183 0 .357-.015.536-.023V23.406zm8.413-3.429c0-4.934-4.014-8.949-8.949-8.949s-8.948 4.015-8.948 8.949c0 1.772.525 3.425 1.42 4.814.292.325.589.706.881 1.139.419.62.827 1.347 1.201 2.174.156.345.306.709.449 1.088a20.548 20.548 0 0 1 1.107 4.525c.092.708.151 1.446.177 2.21l.01.455c.465.161.994.289 1.564.387V23.406c0-1.167.95-2.116 2.115-2.116 1.166 0 2.116.948 2.116 2.116V36.776a9.242 9.242 0 0 0 1.637-.405c.005-.147.006-.294.012-.444.021-.688.073-1.352.15-1.995a20.559 20.559 0 0 1 1.129-4.729c.136-.364.278-.711.428-1.046.389-.866.814-1.626 1.252-2.267.262-.386.527-.731.79-1.03a8.9 8.9 0 0 0 1.459-4.883z"></path><path d="M52.817 7.897a2.262 2.262 0 0 1 3.184-.351c.216.172.413.354.618.531.007.153.001.311-.032.482a2.758 2.758 0 0 1-.131.458c-.051.139-.114.28-.188.42-.04.075-.087.149-.132.224a18.272 18.272 0 0 0-1.078-.936.757.757 0 0 0-1.062.118.753.753 0 0 0 .118 1.06c.354.284.687.58 1.006.88-.052.04-.104.086-.158.122a6.309 6.309 0 0 1-.601.323 1.905 1.905 0 0 1-.535.128 1.062 1.062 0 0 1-.403-.054c-.086-.073-.166-.147-.255-.219a2.27 2.27 0 0 1-.351-3.186zm7.993 17.978c-3.758 6.265-3.743 8.525-3.712 13.488l.005 1.465c0 .068-.079.556-.082.568-.07.271-2.034 4.241-2.034 4.241l-1.924-3.436-.376-.671c-.044-.078-.116-.563-.116-.698l-.006-1.446c-.034-5.293-.054-8.491 4.358-15.844 1.827-3.043 1.272-6.802-1.284-9.974-.211.015-.414-.179-.414-.179l-1.308-1.195c-.171-.155-.268-.375-.31-.626.021.008.046.01.069.018.124.039.256.065.402.054.17-.011.35-.06.535-.128.023-.008.046-.022.071-.034.175-.07.352-.168.527-.289.055-.035.105-.082.158-.121.226-.167.446-.357.648-.596.144-.169.262-.347.369-.526.045-.075.092-.149.131-.224a3.5 3.5 0 0 0 .188-.42c.057-.155.104-.31.132-.457a3.79 3.79 0 0 0 .015-.701c.118.042.384.222.384.222l1.231 1.138c.193.185.29.452.312.761 4.114 4.729 4.99 10.682 2.031 15.61zm-3.628-14.128c.172-.201.289-.396.383-.578.203-.4.258-.732.232-.876l-.403-.366a6.768 6.768 0 0 1-.313.708 3.88 3.88 0 0 1-.433.635c-.172.206-.606.574-.636.598a3.6 3.6 0 0 1-.534.334s.428.372.442.37c.164-.012.39-.101.633-.261.205-.134.423-.317.629-.564zm-1.384 29.852l-.351-.35-.715-.718-.592.591-.338.337.774 1.383h.629l.593-1.243zm3.717-16.5c2.451-4.085 1.878-9.001-1.264-13.098a4.122 4.122 0 0 1-.319.434 3.965 3.965 0 0 1-.743.674c2.633 3.566 3.106 7.752 1.03 11.212-4.193 6.99-4.175 9.854-4.143 15.058l.002.384.654-.655.857.857-.003-.596c-.031-5.09-.047-7.643 3.929-14.27zM34.542 27.151c-.102-.2-.205-.396-.306-.59-1.04-1.994-1.862-3.568-1.927-5.592-.127-4.057.502-4.936 2.706-7.354.335-.37.507-.932.474-1.548-.047-.859-.486-1.698-1.237-2.359-.651-.573-1.684-.635-2.098-.635-.548 0-1.555.101-2.126.772-2.957 3.479-3.044 7.823-2.853 10.786.177 2.754 1.178 5.274 3.246 8.17.3.424.598.816.886 1.195 1.436 1.893 2.472 3.26 2.452 6.063-.013 1.669.202 3.28.21 3.35l.876 6.51 1.499-6.397c.021-.085.496-2.13.538-3.829.094-3.856-.351-4.713-2.005-7.896l-.335-.646zm1.131 8.514c-.039 1.591-.505 3.582-.505 3.582s-.212-1.574-.201-3.178c.029-3.841-1.784-5.474-3.563-7.966-1.683-2.361-2.839-4.708-3.023-7.547-.209-3.236.034-6.944 2.568-9.926.201-.235.695-.347 1.204-.347.518 0 1.051.115 1.298.334 1.047.922.893 1.938.667 2.184-2.409 2.644-3.157 3.823-3.019 8.208.081 2.517 1.188 4.414 2.368 6.699 1.914 3.698 2.297 4.178 2.206 7.957zm.076-30.311a2.913 2.913 0 0 0-1.167 3.953 2.912 2.912 0 0 0 3.953 1.167c1.415-.769 3.393-5.165 3.393-5.165s-4.766-.724-6.179.045zm2.562 3.15a.403.403 0 0 0 .008.569.04.04 0 0 0 .009.005c-.14.157-.267.277-.371.335a1.706 1.706 0 1 1-1.631-2.997c.225-.123.729-.185 1.375-.201-.898.997-.818 1.432-.717 1.619.018.034.036.057.049.075.293.407.885.25 1.683-.109a8.27 8.27 0 0 1 .292-.121 7.9 7.9 0 0 1-.697.825z"></path></g><!----></svg>